Nar en av hans familjemedlemmar mordas, svar Washington-detektiven Alex Cross pa att hitta garningsmannen. 
Han upptacker att det inte var hans forsta offer, och att inget ar som det verkar. 

General                          
Format                                   : AVI
Format/Info                              : Audio Video Interleave
File size                                : 700 MiB
Duration                                 : 1h 41mn
Overall bit rate                         : 965 Kbps
Writing application                      : VirtualDubMod 1.5.10.2 (build 2542/release)
Writing library                          : VirtualDubMod build 2542/release

Video
ID                                       : 0
Format                                   : MPEG-4 Visual
Format profile                           : Advanced Simple@L5
Format settings, BVOP                    : 1
Format settings, QPel                    : No
Format settings, GMC                     : No warppoints
Format settings, Matrix                  : Default (H.263)
Muxing mode                              : Packed bitstream
Codec ID                                 : XVID
Codec ID/Hint                            : XviD
Duration                                 : 1h 41mn
Bit rate                                 : 828 Kbps
Width                                    : 640 pixels
Height                                   : 352 pixels
Display aspect ratio                     : 16:9
Frame rate                               : 24.000 fps
Color space                              : YUV
Chroma subsampling                       : 4:2:0
Bit depth                                : 8 bits
Scan type                                : Progressive
Compression mode                         : Lossy
Bits/(Pixel*Frame)                       : 0.153
Stream size                              : 600 MiB (86%)
Writing library                          : XviD 64

Audio
ID                                       : 1
Format                                   : MPEG Audio
Format version                           : Version 1
Format profile                           : Layer 3
Mode                                     : Joint stereo
Mode extension                           : MS Stereo
Codec ID                                 : 55
Codec ID/Hint                            : MP3
Duration                                 : 1h 41mn
Bit rate mode                            : Constant
Bit rate                                 : 128 Kbps
Channel(s)                               : 2 channels
Sampling rate                            : 48.0 KHz
Compression mode                         : Lossy
Stream size                              : 92.8 MiB (13%)
Alignment                                : Split accross interleaves
Interleave, duration                     : 42 ms (1.00 video frame)
Interleave, preload duration             : 500 ms
Writing library                          : LAME3.98r
Encoding settings                        : -m j -V 4 -q 3 -lowpass 17 -b 128

Release date: October 19, 2012
Street date: February 5, 2013  

Skadespelare: Rachel Nichols, Matthew Fox, Tyler Perry, Jean Reno, Edward Burns,
Giancarlo Esposito, John C McGinley, Cicely Tyson, Chad Lindberg, Carmen Ejogo, Stephanie Jacobsen, Yara Shahidi.

Oversattaresida: www.swesub.nu
Oversattare: Magnus Lossker 
Synkare: N/A

Kalla: Alex Cross[2012]BRRip XviD-ETRG 
 
http://bayimg.com/HAKdaAAEJ 
http://bayimg.com/haKDCAaEJ 
http://bayimg.com/hAKDfAaEJ 
http://bayimg.com/haKdHAAEJ